<?xml version="1.0" standalone="no"?>
<!DOCTYPE svg PUBLIC "-//W3C//DTD SVG 20010904//EN"
 "http://www.w3.org/TR/2001/REC-SVG-20010904/DTD/svg10.dtd">
<svg version="1.0" xmlns="http://www.w3.org/2000/svg"
 width="225.000000pt" height="225.000000pt" viewBox="0 0 225.000000 225.000000"
 preserveAspectRatio="xMidYMid meet">
<metadata>
Created by potrace 1.13, written by Peter Selinger 2001-2015
</metadata>
<g transform="translate(0.000000,225.000000) scale(0.100000,-0.100000)"
fill="#000000" stroke="none">
<path d="M1195 2235 c-158 -28 -247 -110 -292 -268 -9 -34 -16 -123 -20 -254
l-6 -203 -138 0 -139 0 0 -190 0 -190 140 0 140 0 0 -565 0 -565 210 0 210 0
0 565 0 565 155 0 c85 0 155 2 155 5 0 11 30 290 36 333 l5 42 -176 0 -177 0
4 145 c3 143 3 145 31 172 27 28 29 28 172 31 l145 3 0 195 0 194 -192 -1
c-109 0 -224 -6 -263 -14z"/>
</g>
</svg>
