<?xml version="1.0" encoding="utf-8"?>
<!-- Svg Vector Icons : http://www.onlinewebfonts.com/icon -->
<!DOCTYPE svg PUBLIC "-//W3C//DTD SVG 1.1//EN" "http://www.w3.org/Graphics/SVG/1.1/DTD/svg11.dtd">
<svg version="1.1" xmlns="http://www.w3.org/2000/svg" xmlns:xlink="http://www.w3.org/1999/xlink" x="0px" y="0px" viewBox="0 0 1000 1000" enable-background="new 0 0 1000 1000" xml:space="preserve">
<metadata> Svg Vector Icons : http://www.onlinewebfonts.com/icon </metadata>
<g><path d="M971.6,868.1l-135-135c128.8-177.9,116.6-429.4-42.9-588.9c-92-92-208.6-135-325.1-135c-116.6,0-233.1,42.9-325.1,135c-177.9,177.9-177.9,466.2,0,644.1c92,92,208.6,135,325.1,135c92,0,190.2-30.7,269.9-85.9l135,135c24.5,24.5,73.6,24.5,98.2,0l0,0C996.1,941.7,996.1,898.7,971.6,868.1z M462.4,812.9c-92,0-184-36.8-245.4-104.3c-135-135-135-361.9,0-496.9c67.5-67.5,153.4-104.3,245.4-104.3c92,0,184,36.8,245.4,104.3c135,135,135,361.9,0,496.9C646.5,776.1,560.6,812.9,462.4,812.9z"/></g>
</svg>