<?xml version="1.0" standalone="no"?>
<!DOCTYPE svg PUBLIC "-//W3C//DTD SVG 20010904//EN"
 "http://www.w3.org/TR/2001/REC-SVG-20010904/DTD/svg10.dtd">
<svg version="1.0" xmlns="http://www.w3.org/2000/svg"
 width="512.000000pt" height="512.000000pt" viewBox="0 0 512.000000 512.000000"
 preserveAspectRatio="xMidYMid meet">
<metadata>
Created by potrace 1.13, written by Peter Selinger 2001-2015
</metadata>
<g transform="translate(0.000000,512.000000) scale(0.100000,-0.100000)"
fill="#000000" stroke="none">
<path d="M3956 5110 c-187 -34 -380 -136 -520 -276 -179 -179 -286 -428 -286
-664 l0 -80 -767 -384 -768 -383 -50 38 c-77 60 -219 126 -330 154 -533 136
-1053 -166 -1207 -700 -20 -70 -23 -102 -23 -255 0 -153 3 -185 23 -255 154
-534 674 -836 1207 -700 111 28 253 94 330 154 l50 38 768 -383 767 -384 0
-80 c0 -394 277 -769 665 -901 124 -42 208 -52 370 -46 180 7 306 43 455 131
225 133 372 329 455 606 22 72 31 311 16 407 -39 253 -190 493 -406 645 -187
133 -366 184 -609 175 -207 -7 -344 -50 -512 -163 l-83 -55 -765 383 -766 383
0 45 0 45 766 383 765 383 83 -55 c168 -113 305 -156 512 -163 243 -9 422 42
609 175 216 152 367 392 406 645 15 96 6 335 -16 407 -66 220 -163 376 -318
508 -108 93 -231 157 -397 207 -64 20 -344 29 -424 15z"/>
</g>
</svg>
