<?xml version="1.0" standalone="no"?>
<!DOCTYPE svg PUBLIC "-//W3C//DTD SVG 20010904//EN"
 "http://www.w3.org/TR/2001/REC-SVG-20010904/DTD/svg10.dtd">
<svg version="1.0" xmlns="http://www.w3.org/2000/svg"
 width="512.000000pt" height="512.000000pt" viewBox="0 0 512.000000 512.000000"
 preserveAspectRatio="xMidYMid meet">
<metadata>
Created by potrace 1.13, written by Peter Selinger 2001-2015
</metadata>
<g transform="translate(0.000000,512.000000) scale(0.100000,-0.100000)"
fill="#000000" stroke="none">
<path d="M3355 4615 c-371 -70 -682 -346 -805 -713 -37 -112 -56 -321 -41
-457 6 -48 9 -91 6 -94 -5 -9 -164 6 -315 30 -479 76 -991 300 -1360 596 -74
59 -151 131 -427 397 l-62 60 -35 -76 c-84 -180 -115 -417 -82 -613 43 -253
141 -434 334 -616 l97 -91 -60 7 c-92 11 -233 49 -309 84 -38 17 -73 31 -79
31 -15 0 0 -175 23 -265 23 -91 90 -235 152 -332 59 -90 182 -211 288 -282 86
-58 238 -128 298 -138 18 -3 35 -9 37 -13 11 -18 -97 -31 -259 -30 l-171 2 3
-24 c5 -33 63 -152 111 -225 53 -82 169 -204 256 -268 130 -97 308 -170 470
-195 135 -20 134 -18 10 -99 -139 -91 -358 -200 -498 -246 -250 -84 -461 -113
-812 -115 l-100 0 25 -20 c36 -28 297 -161 421 -213 229 -98 496 -169 752
-202 161 -20 638 -21 802 0 613 76 1165 329 1593 729 460 430 755 936 906
1554 50 203 86 497 86 697 0 114 4 124 77 180 127 99 423 422 423 463 0 6 -50
-6 -117 -29 -142 -48 -344 -99 -393 -99 l-35 1 40 31 c65 51 203 196 245 258
45 66 130 228 130 247 0 7 -3 13 -6 13 -3 0 -71 -30 -151 -66 -154 -70 -378
-148 -453 -159 -49 -7 -39 -13 -195 110 -78 62 -215 133 -318 164 -134 41
-361 53 -502 26z"/>
</g>
</svg>
