<?xml version="1.0" standalone="no"?>
<!DOCTYPE svg PUBLIC "-//W3C//DTD SVG 20010904//EN"
 "http://www.w3.org/TR/2001/REC-SVG-20010904/DTD/svg10.dtd">
<svg version="1.0" xmlns="http://www.w3.org/2000/svg"
 width="512.000000pt" height="512.000000pt" viewBox="0 0 512.000000 512.000000"
 preserveAspectRatio="xMidYMid meet">
<metadata>
Created by potrace 1.13, written by Peter Selinger 2001-2015
</metadata>
<g transform="translate(0.000000,512.000000) scale(0.100000,-0.100000)"
fill="#000000" stroke="none">
<path d="M3646 5104 c-179 -32 -367 -115 -516 -228 -47 -35 -216 -196 -376
-358 -226 -227 -304 -312 -348 -379 -130 -200 -196 -426 -196 -669 0 -92 19
-259 36 -314 5 -15 135 110 638 612 605 604 634 631 706 666 113 54 186 69
310 64 207 -9 370 -99 485 -266 67 -98 97 -193 103 -322 5 -124 -10 -197 -64
-310 -35 -72 -62 -101 -667 -707 -562 -563 -628 -632 -606 -637 13 -3 44 -10
69 -16 79 -18 302 -24 402 -10 184 25 359 89 506 186 66 44 158 128 380 348
163 161 323 329 358 376 115 153 196 337 229 524 20 115 20 329 0 437 -95 514
-490 909 -1004 1004 -104 19 -336 19 -445 -1z"/>
<path d="M3230 3644 c-39 -14 -165 -136 -883 -853 -607 -606 -844 -848 -860
-881 -18 -36 -22 -62 -22 -135 0 -81 3 -95 29 -143 55 -99 139 -152 252 -160
51 -3 87 0 125 13 51 16 95 58 892 854 607 606 844 848 860 881 32 65 32 206
-1 267 -33 63 -74 106 -134 138 -43 24 -67 29 -133 32 -54 2 -94 -3 -125 -13z"/>
<path d="M1444 2894 c-164 -27 -321 -89 -463 -180 -67 -44 -151 -121 -389
-358 -316 -314 -388 -399 -463 -549 -142 -282 -170 -635 -74 -937 120 -379
421 -680 800 -803 125 -41 234 -57 380 -57 268 0 489 67 705 213 100 68 658
620 736 729 108 150 178 323 210 516 17 106 14 346 -6 432 -5 25 -13 56 -16
69 -5 22 -74 -44 -637 -606 -606 -605 -635 -632 -707 -667 -100 -48 -177 -66
-280 -66 -264 1 -485 151 -581 395 -26 66 -33 99 -37 182 -6 130 8 205 60 313
l40 85 630 631 c502 503 627 633 612 638 -112 34 -375 45 -520 20z"/>
</g>
</svg>
